<svg width="72" height="39" viewBox="0 0 72 39" fill="none" xmlns="http://www.w3.org/2000/svg">
<path d="M12.692 34V21.4H17.876C18.992 21.4 19.946 21.58 20.738 21.94C21.542 22.3 22.16 22.816 22.592 23.488C23.024 24.16 23.24 24.958 23.24 25.882C23.24 26.806 23.024 27.604 22.592 28.276C22.16 28.948 21.542 29.464 20.738 29.824C19.946 30.184 18.992 30.364 17.876 30.364H13.988L15.032 29.266V34H12.692ZM15.032 29.518L13.988 28.384H17.768C18.8 28.384 19.574 28.168 20.09 27.736C20.618 27.292 20.882 26.674 20.882 25.882C20.882 25.078 20.618 24.46 20.09 24.028C19.574 23.596 18.8 23.38 17.768 23.38H13.988L15.032 22.228V29.518ZM25.5365 34V20.644H27.7865V34H25.5365ZM36.6617 34V32.056L36.5357 31.642V28.24C36.5357 27.58 36.3377 27.07 35.9417 26.71C35.5457 26.338 34.9457 26.152 34.1417 26.152C33.6017 26.152 33.0677 26.236 32.5397 26.404C32.0237 26.572 31.5857 26.806 31.2257 27.106L30.3437 25.468C30.8597 25.072 31.4717 24.778 32.1797 24.586C32.8997 24.382 33.6437 24.28 34.4117 24.28C35.8037 24.28 36.8777 24.616 37.6337 25.288C38.4017 25.948 38.7857 26.974 38.7857 28.366V34H36.6617ZM33.6377 34.126C32.9177 34.126 32.2877 34.006 31.7477 33.766C31.2077 33.514 30.7877 33.172 30.4877 32.74C30.1997 32.296 30.0557 31.798 30.0557 31.246C30.0557 30.706 30.1817 30.22 30.4337 29.788C30.6977 29.356 31.1237 29.014 31.7117 28.762C32.2997 28.51 33.0797 28.384 34.0517 28.384H36.8417V29.878H34.2137C33.4457 29.878 32.9297 30.004 32.6657 30.256C32.4017 30.496 32.2697 30.796 32.2697 31.156C32.2697 31.564 32.4317 31.888 32.7557 32.128C33.0797 32.368 33.5297 32.488 34.1057 32.488C34.6577 32.488 35.1497 32.362 35.5817 32.11C36.0257 31.858 36.3437 31.486 36.5357 30.994L36.9137 32.344C36.6977 32.908 36.3077 33.346 35.7437 33.658C35.1917 33.97 34.4897 34.126 33.6377 34.126ZM47.1273 24.28C47.8953 24.28 48.5793 24.43 49.1793 24.73C49.7913 25.03 50.2713 25.492 50.6193 26.116C50.9673 26.728 51.1413 27.52 51.1413 28.492V34H48.8913V28.78C48.8913 27.928 48.6873 27.292 48.2793 26.872C47.8833 26.452 47.3253 26.242 46.6053 26.242C46.0773 26.242 45.6093 26.35 45.2013 26.566C44.7933 26.782 44.4753 27.106 44.2473 27.538C44.0313 27.958 43.9233 28.492 43.9233 29.14V34H41.6733V24.388H43.8153V26.98L43.4373 26.188C43.7733 25.576 44.2593 25.108 44.8953 24.784C45.5433 24.448 46.2873 24.28 47.1273 24.28ZM58.5311 34.126C57.4631 34.126 56.5271 33.916 55.7231 33.496C54.9311 33.064 54.3131 32.476 53.8691 31.732C53.4371 30.988 53.2211 30.142 53.2211 29.194C53.2211 28.234 53.4311 27.388 53.8511 26.656C54.2831 25.912 54.8711 25.33 55.6151 24.91C56.3711 24.49 57.2291 24.28 58.1891 24.28C59.1251 24.28 59.9591 24.484 60.6911 24.892C61.4231 25.3 61.9991 25.876 62.4191 26.62C62.8391 27.364 63.0491 28.24 63.0491 29.248C63.0491 29.344 63.0431 29.452 63.0311 29.572C63.0311 29.692 63.0251 29.806 63.0131 29.914H55.0031V28.42H61.8251L60.9431 28.888C60.9551 28.336 60.8411 27.85 60.6011 27.43C60.3611 27.01 60.0311 26.68 59.6111 26.44C59.2031 26.2 58.7291 26.08 58.1891 26.08C57.6371 26.08 57.1511 26.2 56.7311 26.44C56.3231 26.68 55.9991 27.016 55.7591 27.448C55.5311 27.868 55.4171 28.366 55.4171 28.942V29.302C55.4171 29.878 55.5491 30.388 55.8131 30.832C56.0771 31.276 56.4491 31.618 56.9291 31.858C57.4091 32.098 57.9611 32.218 58.5851 32.218C59.1251 32.218 59.6111 32.134 60.0431 31.966C60.4751 31.798 60.8591 31.534 61.1951 31.174L62.4011 32.56C61.9691 33.064 61.4231 33.454 60.7631 33.73C60.1151 33.994 59.3711 34.126 58.5311 34.126ZM68.8284 34.126C67.7724 34.126 66.9564 33.856 66.3804 33.316C65.8044 32.764 65.5164 31.954 65.5164 30.886V22.264H67.7664V30.832C67.7664 31.288 67.8804 31.642 68.1084 31.894C68.3484 32.146 68.6784 32.272 69.0984 32.272C69.6024 32.272 70.0224 32.14 70.3584 31.876L70.9884 33.478C70.7244 33.694 70.4004 33.856 70.0164 33.964C69.6324 34.072 69.2364 34.126 68.8284 34.126ZM63.9324 26.26V24.46H70.3404V26.26H63.9324Z" fill="#C2C2C2"/>
<path d="M5.788 17V12.014L6.31 13.454L0.838 4.4H3.34L7.732 11.69H6.328L10.756 4.4H13.06L7.588 13.454L8.128 12.014V17H5.788ZM17.6241 17.126C16.6401 17.126 15.7641 16.916 14.9961 16.496C14.2281 16.064 13.6221 15.476 13.1781 14.732C12.7341 13.988 12.5121 13.142 12.5121 12.194C12.5121 11.234 12.7341 10.388 13.1781 9.656C13.6221 8.912 14.2281 8.33 14.9961 7.91C15.7641 7.49 16.6401 7.28 17.6241 7.28C18.6201 7.28 19.5021 7.49 20.2701 7.91C21.0501 8.33 21.6561 8.906 22.0881 9.638C22.5321 10.37 22.7541 11.222 22.7541 12.194C22.7541 13.142 22.5321 13.988 22.0881 14.732C21.6561 15.476 21.0501 16.064 20.2701 16.496C19.5021 16.916 18.6201 17.126 17.6241 17.126ZM17.6241 15.2C18.1761 15.2 18.6681 15.08 19.1001 14.84C19.5321 14.6 19.8681 14.252 20.1081 13.796C20.3601 13.34 20.4861 12.806 20.4861 12.194C20.4861 11.57 20.3601 11.036 20.1081 10.592C19.8681 10.136 19.5321 9.788 19.1001 9.548C18.6681 9.308 18.1821 9.188 17.6421 9.188C17.0901 9.188 16.5981 9.308 16.1661 9.548C15.7461 9.788 15.4101 10.136 15.1581 10.592C14.9061 11.036 14.7801 11.57 14.7801 12.194C14.7801 12.806 14.9061 13.34 15.1581 13.796C15.4101 14.252 15.7461 14.6 16.1661 14.84C16.5981 15.08 17.0841 15.2 17.6241 15.2ZM29.2617 20.618C28.3737 20.618 27.5037 20.498 26.6517 20.258C25.8117 20.03 25.1217 19.694 24.5817 19.25L25.5897 17.558C26.0097 17.906 26.5377 18.182 27.1737 18.386C27.8217 18.602 28.4757 18.71 29.1357 18.71C30.1917 18.71 30.9657 18.464 31.4577 17.972C31.9497 17.492 32.1957 16.766 32.1957 15.794V14.084L32.3757 11.906L32.3037 9.728V7.388H34.4457V15.542C34.4457 17.282 34.0017 18.56 33.1137 19.376C32.2257 20.204 30.9417 20.618 29.2617 20.618ZM28.9737 16.568C28.0617 16.568 27.2337 16.376 26.4897 15.992C25.7577 15.596 25.1757 15.05 24.7437 14.354C24.3237 13.658 24.1137 12.842 24.1137 11.906C24.1137 10.982 24.3237 10.172 24.7437 9.476C25.1757 8.78 25.7577 8.24 26.4897 7.856C27.2337 7.472 28.0617 7.28 28.9737 7.28C29.7897 7.28 30.5217 7.442 31.1697 7.766C31.8177 8.09 32.3337 8.594 32.7177 9.278C33.1137 9.962 33.3117 10.838 33.3117 11.906C33.3117 12.974 33.1137 13.856 32.7177 14.552C32.3337 15.236 31.8177 15.746 31.1697 16.082C30.5217 16.406 29.7897 16.568 28.9737 16.568ZM29.3157 14.66C29.8797 14.66 30.3837 14.546 30.8277 14.318C31.2717 14.078 31.6137 13.754 31.8537 13.346C32.1057 12.926 32.2317 12.446 32.2317 11.906C32.2317 11.366 32.1057 10.892 31.8537 10.484C31.6137 10.064 31.2717 9.746 30.8277 9.53C30.3837 9.302 29.8797 9.188 29.3157 9.188C28.7517 9.188 28.2417 9.302 27.7857 9.53C27.3417 9.746 26.9937 10.064 26.7417 10.484C26.5017 10.892 26.3817 11.366 26.3817 11.906C26.3817 12.446 26.5017 12.926 26.7417 13.346C26.9937 13.754 27.3417 14.078 27.7857 14.318C28.2417 14.546 28.7517 14.66 29.3157 14.66ZM43.3257 17V15.056L43.1997 14.642V11.24C43.1997 10.58 43.0017 10.07 42.6057 9.71C42.2097 9.338 41.6097 9.152 40.8057 9.152C40.2657 9.152 39.7317 9.236 39.2037 9.404C38.6877 9.572 38.2497 9.806 37.8897 10.106L37.0077 8.468C37.5237 8.072 38.1357 7.778 38.8437 7.586C39.5637 7.382 40.3077 7.28 41.0757 7.28C42.4677 7.28 43.5417 7.616 44.2977 8.288C45.0657 8.948 45.4497 9.974 45.4497 11.366V17H43.3257ZM40.3017 17.126C39.5817 17.126 38.9517 17.006 38.4117 16.766C37.8717 16.514 37.4517 16.172 37.1517 15.74C36.8637 15.296 36.7197 14.798 36.7197 14.246C36.7197 13.706 36.8457 13.22 37.0977 12.788C37.3617 12.356 37.7877 12.014 38.3757 11.762C38.9637 11.51 39.7437 11.384 40.7157 11.384H43.5057V12.878H40.8777C40.1097 12.878 39.5937 13.004 39.3297 13.256C39.0657 13.496 38.9337 13.796 38.9337 14.156C38.9337 14.564 39.0957 14.888 39.4197 15.128C39.7437 15.368 40.1937 15.488 40.7697 15.488C41.3217 15.488 41.8137 15.362 42.2457 15.11C42.6897 14.858 43.0077 14.486 43.1997 13.994L43.5777 15.344C43.3617 15.908 42.9717 16.346 42.4077 16.658C41.8557 16.97 41.1537 17.126 40.3017 17.126Z" fill="white"/>
</svg>
