<svg width="79" height="41" viewBox="0 0 79 41" fill="none" xmlns="http://www.w3.org/2000/svg">
<path d="M12.88 36V22H18.64C19.88 22 20.94 22.2 21.82 22.6C22.7133 23 23.4 23.5733 23.88 24.32C24.36 25.0667 24.6 25.9533 24.6 26.98C24.6 28.0067 24.36 28.8933 23.88 29.64C23.4 30.3867 22.7133 30.96 21.82 31.36C20.94 31.76 19.88 31.96 18.64 31.96H14.32L15.48 30.74V36H12.88ZM15.48 31.02L14.32 29.76H18.52C19.6667 29.76 20.5267 29.52 21.1 29.04C21.6867 28.5467 21.98 27.86 21.98 26.98C21.98 26.0867 21.6867 25.4 21.1 24.92C20.5267 24.44 19.6667 24.2 18.52 24.2H14.32L15.48 22.92V31.02ZM27.1517 36V21.16H29.6517V36H27.1517ZM39.513 36V33.84L39.373 33.38V29.6C39.373 28.8667 39.153 28.3 38.713 27.9C38.273 27.4867 37.6063 27.28 36.713 27.28C36.113 27.28 35.5196 27.3733 34.933 27.56C34.3596 27.7467 33.873 28.0067 33.473 28.34L32.493 26.52C33.0663 26.08 33.7463 25.7533 34.533 25.54C35.333 25.3133 36.1596 25.2 37.013 25.2C38.5596 25.2 39.753 25.5733 40.593 26.32C41.4463 27.0533 41.873 28.1933 41.873 29.74V36H39.513ZM36.153 36.14C35.353 36.14 34.653 36.0067 34.053 35.74C33.453 35.46 32.9863 35.08 32.653 34.6C32.333 34.1067 32.173 33.5533 32.173 32.94C32.173 32.34 32.313 31.8 32.593 31.32C32.8863 30.84 33.3596 30.46 34.013 30.18C34.6663 29.9 35.533 29.76 36.613 29.76H39.713V31.42H36.793C35.9396 31.42 35.3663 31.56 35.073 31.84C34.7796 32.1067 34.633 32.44 34.633 32.84C34.633 33.2933 34.813 33.6533 35.173 33.92C35.533 34.1867 36.033 34.32 36.673 34.32C37.2863 34.32 37.833 34.18 38.313 33.9C38.8063 33.62 39.1596 33.2067 39.373 32.66L39.793 34.16C39.553 34.7867 39.1196 35.2733 38.493 35.62C37.8796 35.9667 37.0996 36.14 36.153 36.14ZM51.1414 25.2C51.9947 25.2 52.7547 25.3667 53.4214 25.7C54.1014 26.0333 54.6347 26.5467 55.0214 27.24C55.4081 27.92 55.6014 28.8 55.6014 29.88V36H53.1014V30.2C53.1014 29.2533 52.8747 28.5467 52.4214 28.08C51.9814 27.6133 51.3614 27.38 50.5614 27.38C49.9747 27.38 49.4547 27.5 49.0014 27.74C48.5481 27.98 48.1947 28.34 47.9414 28.82C47.7014 29.2867 47.5814 29.88 47.5814 30.6V36H45.0814V25.32H47.4614V28.2L47.0414 27.32C47.4147 26.64 47.9547 26.12 48.6614 25.76C49.3814 25.3867 50.2081 25.2 51.1414 25.2ZM63.8123 36.14C62.6257 36.14 61.5857 35.9067 60.6923 35.44C59.8123 34.96 59.1257 34.3067 58.6323 33.48C58.1523 32.6533 57.9123 31.7133 57.9123 30.66C57.9123 29.5933 58.1457 28.6533 58.6123 27.84C59.0923 27.0133 59.7457 26.3667 60.5723 25.9C61.4123 25.4333 62.3657 25.2 63.4323 25.2C64.4723 25.2 65.399 25.4267 66.2123 25.88C67.0257 26.3333 67.6657 26.9733 68.1323 27.8C68.599 28.6267 68.8323 29.6 68.8323 30.72C68.8323 30.8267 68.8257 30.9467 68.8123 31.08C68.8123 31.2133 68.8057 31.34 68.7923 31.46H59.8923V29.8H67.4723L66.4923 30.32C66.5057 29.7067 66.379 29.1667 66.1123 28.7C65.8457 28.2333 65.479 27.8667 65.0123 27.6C64.559 27.3333 64.0323 27.2 63.4323 27.2C62.819 27.2 62.279 27.3333 61.8123 27.6C61.359 27.8667 60.999 28.24 60.7323 28.72C60.479 29.1867 60.3523 29.74 60.3523 30.38V30.78C60.3523 31.42 60.499 31.9867 60.7923 32.48C61.0857 32.9733 61.499 33.3533 62.0323 33.62C62.5657 33.8867 63.179 34.02 63.8723 34.02C64.4723 34.02 65.0123 33.9267 65.4923 33.74C65.9723 33.5533 66.399 33.26 66.7723 32.86L68.1123 34.4C67.6323 34.96 67.0257 35.3933 66.2923 35.7C65.5723 35.9933 64.7457 36.14 63.8123 36.14ZM75.2538 36.14C74.0804 36.14 73.1738 35.84 72.5337 35.24C71.8938 34.6267 71.5738 33.7267 71.5738 32.54V22.96H74.0738V32.48C74.0738 32.9867 74.2004 33.38 74.4538 33.66C74.7204 33.94 75.0871 34.08 75.5538 34.08C76.1138 34.08 76.5804 33.9333 76.9538 33.64L77.6538 35.42C77.3604 35.66 77.0004 35.84 76.5738 35.96C76.1471 36.08 75.7071 36.14 75.2538 36.14ZM69.8138 27.4V25.4H76.9338V27.4H69.8138Z" fill="#C2C2C2"/>
<path d="M6.32 19V13.46L6.9 15.06L0.82 5H3.6L8.48 13.1H6.92L11.84 5H14.4L8.32 15.06L8.92 13.46V19H6.32ZM19.4713 19.14C18.3779 19.14 17.4046 18.9067 16.5513 18.44C15.6979 17.96 15.0246 17.3067 14.5313 16.48C14.0379 15.6533 13.7913 14.7133 13.7913 13.66C13.7913 12.5933 14.0379 11.6533 14.5313 10.84C15.0246 10.0133 15.6979 9.36667 16.5513 8.9C17.4046 8.43333 18.3779 8.2 19.4713 8.2C20.5779 8.2 21.5579 8.43333 22.4113 8.9C23.2779 9.36667 23.9513 10.0067 24.4313 10.82C24.9246 11.6333 25.1713 12.58 25.1713 13.66C25.1713 14.7133 24.9246 15.6533 24.4313 16.48C23.9513 17.3067 23.2779 17.96 22.4113 18.44C21.5579 18.9067 20.5779 19.14 19.4713 19.14ZM19.4713 17C20.0846 17 20.6313 16.8667 21.1113 16.6C21.5913 16.3333 21.9646 15.9467 22.2313 15.44C22.5113 14.9333 22.6513 14.34 22.6513 13.66C22.6513 12.9667 22.5113 12.3733 22.2313 11.88C21.9646 11.3733 21.5913 10.9867 21.1113 10.72C20.6313 10.4533 20.0913 10.32 19.4913 10.32C18.8779 10.32 18.3313 10.4533 17.8513 10.72C17.3846 10.9867 17.0113 11.3733 16.7313 11.88C16.4513 12.3733 16.3113 12.9667 16.3113 13.66C16.3113 14.34 16.4513 14.9333 16.7313 15.44C17.0113 15.9467 17.3846 16.3333 17.8513 16.6C18.3313 16.8667 18.8713 17 19.4713 17ZM32.4019 23.02C31.4152 23.02 30.4485 22.8867 29.5019 22.62C28.5685 22.3667 27.8019 21.9933 27.2019 21.5L28.3219 19.62C28.7885 20.0067 29.3752 20.3133 30.0819 20.54C30.8019 20.78 31.5285 20.9 32.2619 20.9C33.4352 20.9 34.2952 20.6267 34.8419 20.08C35.3885 19.5467 35.6619 18.74 35.6619 17.66V15.76L35.8619 13.34L35.7819 10.92V8.32H38.1619V17.38C38.1619 19.3133 37.6685 20.7333 36.6819 21.64C35.6952 22.56 34.2685 23.02 32.4019 23.02ZM32.0819 18.52C31.0685 18.52 30.1485 18.3067 29.3219 17.88C28.5085 17.44 27.8619 16.8333 27.3819 16.06C26.9152 15.2867 26.6819 14.38 26.6819 13.34C26.6819 12.3133 26.9152 11.4133 27.3819 10.64C27.8619 9.86667 28.5085 9.26667 29.3219 8.84C30.1485 8.41333 31.0685 8.2 32.0819 8.2C32.9885 8.2 33.8019 8.38 34.5219 8.74C35.2419 9.1 35.8152 9.66 36.2419 10.42C36.6819 11.18 36.9019 12.1533 36.9019 13.34C36.9019 14.5267 36.6819 15.5067 36.2419 16.28C35.8152 17.04 35.2419 17.6067 34.5219 17.98C33.8019 18.34 32.9885 18.52 32.0819 18.52ZM32.4619 16.4C33.0885 16.4 33.6485 16.2733 34.1419 16.02C34.6352 15.7533 35.0152 15.3933 35.2819 14.94C35.5619 14.4733 35.7019 13.94 35.7019 13.34C35.7019 12.74 35.5619 12.2133 35.2819 11.76C35.0152 11.2933 34.6352 10.94 34.1419 10.7C33.6485 10.4467 33.0885 10.32 32.4619 10.32C31.8352 10.32 31.2685 10.4467 30.7619 10.7C30.2685 10.94 29.8819 11.2933 29.6019 11.76C29.3352 12.2133 29.2019 12.74 29.2019 13.34C29.2019 13.94 29.3352 14.4733 29.6019 14.94C29.8819 15.3933 30.2685 15.7533 30.7619 16.02C31.2685 16.2733 31.8352 16.4 32.4619 16.4ZM48.0286 19V16.84L47.8886 16.38V12.6C47.8886 11.8667 47.6686 11.3 47.2286 10.9C46.7886 10.4867 46.1219 10.28 45.2286 10.28C44.6286 10.28 44.0353 10.3733 43.4486 10.56C42.8753 10.7467 42.3886 11.0067 41.9886 11.34L41.0086 9.52C41.5819 9.08 42.2619 8.75333 43.0486 8.54C43.8486 8.31333 44.6753 8.2 45.5286 8.2C47.0753 8.2 48.2686 8.57333 49.1086 9.32C49.9619 10.0533 50.3886 11.1933 50.3886 12.74V19H48.0286ZM44.6686 19.14C43.8686 19.14 43.1686 19.0067 42.5686 18.74C41.9686 18.46 41.5019 18.08 41.1686 17.6C40.8486 17.1067 40.6886 16.5533 40.6886 15.94C40.6886 15.34 40.8286 14.8 41.1086 14.32C41.4019 13.84 41.8753 13.46 42.5286 13.18C43.1819 12.9 44.0486 12.76 45.1286 12.76H48.2286V14.42H45.3086C44.4553 14.42 43.8819 14.56 43.5886 14.84C43.2953 15.1067 43.1486 15.44 43.1486 15.84C43.1486 16.2933 43.3286 16.6533 43.6886 16.92C44.0486 17.1867 44.5486 17.32 45.1886 17.32C45.8019 17.32 46.3486 17.18 46.8286 16.9C47.3219 16.62 47.6753 16.2067 47.8886 15.66L48.3086 17.16C48.0686 17.7867 47.6353 18.2733 47.0086 18.62C46.3953 18.9667 45.6153 19.14 44.6686 19.14Z" fill="black"/>
</svg>
